<svg width="24" height="24" viewBox="0 0 24 24" fill="none" xmlns="http://www.w3.org/2000/svg">
    <g clip-path="url(#clip0_2301_142759)">
        <path fill-rule="evenodd" clip-rule="evenodd" d="M6.00323 10.3197C6.32595 11.3898 6.71662 12.3935 7.14125 13.3617C7.87162 15.0957 8.3642 16.0129 9.04516 17.1509L9.12067 17.2743C9.93337 18.6026 10.8418 20.0872 12.3079 21.0591C13.412 21.7895 14.7553 22.1632 16.0462 22.1632C17.8652 22.1632 19.4279 21.3649 20.4316 20.4291C21.4167 19.5119 22.6922 17.7439 22.6922 14.2943C22.6922 13.1735 23.1601 12.2022 23.541 11.4116C23.5641 11.3635 23.587 11.3161 23.6094 11.2694C23.6094 11.2524 23.6263 11.2184 23.6603 11.1505C23.8132 10.8108 24 10.3691 24 9.92752C24 9.6048 23.9151 9.23112 23.6943 8.9084C23.3546 8.33089 22.7431 8.12707 22.181 8.12707C20.8732 8.12707 19.9714 9.04428 19.5128 9.98002L19.3599 10.2858C19.1731 10.014 18.9862 9.72524 18.8334 9.47046C18.3578 8.63817 18.086 8.07766 17.8482 7.36273C17.6614 6.80221 17.5085 6.15676 17.4066 5.62867C17.1179 3.96256 16.6423 3.41903 15.8594 3.2152C15.2819 3.06233 14.6025 3.18123 14.1084 3.50395C13.7702 2.73961 13.1927 2.3999 12.4268 2.3999C11.3397 2.3999 10.353 3.11329 10.353 4.3208C10.353 4.44955 10.3651 4.57831 10.379 4.72736L10.387 4.81337C10.2511 4.7794 10.0983 4.76242 9.94539 4.76242C8.77339 4.76242 7.9056 5.57772 7.9056 6.68331C7.9056 6.93809 7.93957 7.22684 8.02449 7.56655C7.92258 7.54956 7.82067 7.54956 7.71876 7.54956C7.14125 7.58354 6.61471 7.80435 6.23948 8.26295C5.86735 8.70457 5.71448 9.38399 6.00323 10.3197ZM11.3396 4.32081C11.3396 3.67537 11.9341 3.42059 12.4267 3.42059C12.9532 3.42059 13.1401 3.67537 13.2759 4.2189C13.3948 4.66052 13.4458 5.06817 13.4967 5.54376C13.5647 6.01935 13.8025 7.10796 13.8704 7.37973C14.1252 8.31392 14.6348 9.41952 15.2462 10.7444C14.8895 10.8633 14.414 11.0671 14.0912 11.237C13.6836 11.4578 13.5987 11.4578 13.4288 11.135C13.0721 10.4726 12.8173 9.98004 12.5965 9.40099C12.4097 8.9254 12.2228 8.38187 12.07 7.75186C11.9999 7.45763 11.9466 7.22119 11.9018 7.02272C11.7837 6.49956 11.7252 6.24013 11.5774 5.88192C11.4585 5.37391 11.3396 4.74545 11.3396 4.32081ZM6.97136 10.014C6.81849 9.52145 6.83547 9.14777 7.02231 8.90998C7.20915 8.68917 7.46393 8.58726 7.76967 8.57027C8.29622 8.55329 8.50004 8.92696 8.80578 9.89513C8.99262 10.5066 9.3663 11.3914 9.58711 11.884C9.87586 12.4785 10.2835 13.2768 10.4703 13.5501C10.6232 13.7879 10.7591 13.8558 10.912 13.8558C11.1837 13.8558 11.3876 13.7029 11.3876 13.4312C11.3876 13.2936 11.2637 13.0735 11.1771 12.9194C11.1674 12.9023 11.1583 12.886 11.1498 12.8707C11.119 12.8125 11.0814 12.7427 11.039 12.6643C10.8711 12.3529 10.6297 11.9053 10.4534 11.5118C10.2156 10.9683 9.9438 10.2889 9.72299 9.67587C9.58711 9.31917 9.43424 8.80961 9.28137 8.30006C9.04358 7.51873 8.92468 7.04313 8.92468 6.68489C8.92468 6.14136 9.33233 5.78467 9.9438 5.78467C10.3854 5.78467 10.6742 6.00548 10.861 6.80379C11.0139 7.53416 11.2856 8.72468 11.6763 9.65888C11.9311 10.2704 12.3048 11.0872 12.5256 11.4948C12.57 11.5725 12.6162 11.6466 12.6583 11.714C12.745 11.8531 12.8143 11.9642 12.8143 12.0214C12.8143 12.097 12.7251 12.2 12.6121 12.3305C12.5473 12.4053 12.4747 12.4891 12.4067 12.5819C12.2878 12.7348 12.2368 12.8367 12.2368 12.9556C12.2368 13.0575 12.3048 13.1594 12.4067 13.2953C12.5086 13.4312 12.6105 13.5671 12.7294 13.5671C12.8143 13.5671 12.8653 13.5331 12.9162 13.4652C13.4428 12.8027 14.0203 12.3441 14.6843 11.9689C15.4656 11.5273 16.2655 11.3065 16.8939 11.1706C17.1996 11.1026 17.2846 11.0347 17.2846 10.8648C17.2846 10.661 17.1317 10.5421 16.9279 10.5251C16.803 10.5113 16.6894 10.5201 16.5223 10.533C16.485 10.5359 16.4448 10.539 16.4013 10.5421C16.2315 10.5591 16.1466 10.4742 16.0446 10.2534C15.9971 10.1531 15.9427 10.0421 15.8832 9.92096C15.5599 9.26232 15.089 8.30286 14.7877 7.12651C14.6349 6.53202 14.499 5.90356 14.414 5.08672C14.3631 4.71304 14.431 4.57716 14.6179 4.40731C14.8557 4.20348 15.2803 4.11855 15.603 4.20348C15.9937 4.30539 16.1975 4.61113 16.4013 5.80165C16.5032 6.36217 16.6731 7.07556 16.8769 7.68857C17.1317 8.4699 17.4544 9.11689 17.947 9.98315C18.2188 10.4587 18.5585 10.9513 18.9152 11.4284C18.8472 11.6323 18.7283 11.7682 18.3377 12.0909C17.947 12.4136 17.5563 12.7533 17.1996 13.3818C16.9449 13.8404 16.826 14.3499 16.826 14.6896C16.826 15.0124 16.8939 15.0803 17.0977 15.0803C17.4544 15.0803 17.7432 15.0124 17.7602 14.8595C17.8451 14.248 17.947 13.8574 18.2867 13.3972C18.4905 13.1424 18.8472 12.8197 19.136 12.5649C19.6795 12.1233 19.8664 11.8685 20.0532 11.2401C20.1381 10.9513 20.24 10.6795 20.3759 10.4248C20.6986 9.83028 21.2761 9.15086 22.1779 9.15086C22.4667 9.15086 22.7045 9.23579 22.8573 9.47359C22.9423 9.60947 22.9762 9.79631 22.9762 9.93219C22.9762 10.2233 22.776 10.6223 22.6689 10.8357L22.6535 10.8664L22.595 10.991C22.2194 11.7893 21.6684 12.9606 21.6684 14.299C21.6684 17.3749 20.5813 18.9051 19.7305 19.6864C18.8982 20.4678 17.5888 21.1487 16.0431 21.1487C14.939 21.1487 13.7995 20.826 12.8653 20.2145C11.5839 19.3658 10.7738 18.0427 9.95879 16.7115L9.90829 16.6291C9.24585 15.525 8.78725 14.6572 8.07232 12.9757C7.6693 12.0013 7.29408 11.0501 6.97136 10.014Z" fill="#1A1A1F" />
        <path d="M5.25599 15.6979C4.89621 15.9203 2.98922 16.9193 2.55841 17.0784C2.25112 17.1926 1.91759 17.1648 1.72149 16.5843C1.48061 15.8662 1.81877 15.6964 2.30054 15.5095C2.72672 15.3443 4.49474 14.7051 4.90548 14.5939C5.19423 14.5167 5.39497 14.6139 5.53394 14.9614C5.68681 15.3428 5.58181 15.4956 5.25599 15.6979Z" fill="#1A1A1F" />
        <path d="M0.555517 11.5256C1.04192 11.5735 3.17127 11.6646 3.68392 11.6507C3.9248 11.643 4.11318 11.5642 4.17032 11.1473C4.2151 10.8262 4.16414 10.6594 3.79664 10.5451C3.44149 10.4355 1.21023 10.0726 0.728459 10.0263C0.313089 9.98615 0.0567637 10.0263 0.0073517 10.6841C-0.0389721 11.2971 0.132426 11.484 0.555517 11.5256Z" fill="#1A1A1F" />
        <path d="M3.94787 7.3396C3.39353 7.16455 1.80835 6.2136 1.25202 5.87986L1.16535 5.8279C0.754614 5.58084 0.702114 5.35848 0.987777 4.81649C1.24101 4.33781 1.52204 4.25443 1.93896 4.47061C2.42227 4.7223 4.12853 6.05025 4.45434 6.31275C4.76934 6.56599 4.72611 6.69724 4.56089 7.02305C4.39566 7.34886 4.24125 7.43225 3.94787 7.3396Z" fill="#1A1A1F" />
    </g>
    <defs>
        <clipPath id="clip0_2301_142759">
            <rect width="24" height="24" fill="white" />
        </clipPath>
    </defs>
</svg>