<svg xmlns="http://www.w3.org/2000/svg" width="18" height="18" viewBox="0 0 18 18">
    <path d="M8.75008 0C9.12978 0 9.44363 0.282013 9.49337 0.648078L9.50024 0.749848L9.50144 8H16.7545C17.1687 8 17.5045 8.33579 17.5045 8.75C17.5045 9.1297 17.2224 9.44349 16.8563 9.49315L16.7545 9.5H9.50144L9.50349 16.7491C9.50357 17.1633 9.16785 17.4993 8.75364 17.4993C8.37394 17.4993 8.06009 17.2173 8.01035 16.8512L8.00349 16.7494L8.00144 9.5H0.752441C0.338228 9.5 0.00244141 9.16421 0.00244141 8.75C0.00244141 8.3703 0.284595 8.05651 0.650671 8.00685L0.752441 8H8.00144L8.00024 0.750152C8.00015 0.335939 8.33587 0 8.75008 0Z"/>
</svg>