<svg width="24" height="24" viewBox="0 0 24 24" fill="none" xmlns="http://www.w3.org/2000/svg">
<path fill-rule="evenodd" clip-rule="evenodd" d="M22 7.53932C22 7.3393 21.9972 7.13651 21.9917 6.93649C21.9806 6.49757 21.9528 6.05587 21.875 5.6225C21.7972 5.18358 21.6667 4.77244 21.4639 4.37241C21.2639 3.98071 21.0028 3.61957 20.6917 3.30843C20.3806 2.9973 20.0194 2.73617 19.6278 2.53615C19.2278 2.33336 18.8194 2.20279 18.3806 2.12501C17.9472 2.04723 17.5056 2.02222 17.0667 2.00833C16.8639 2.00556 16.6611 2.00278 16.4611 2C16.2222 2 15.9833 2 15.7444 2H8.25556C8.01667 2 7.77778 2 7.53889 2C7.33889 2 7.13611 2.00278 6.93611 2.00833C6.49722 2.01945 6.05556 2.04723 5.62222 2.12501C5.18333 2.20557 4.77222 2.33336 4.375 2.53893C3.98056 2.73895 3.62222 3.00008 3.31111 3.31121C3 3.62235 2.73611 3.98071 2.53611 4.37518C2.33333 4.77521 2.20278 5.18358 2.125 5.62528C2.04722 6.05865 2.02222 6.50035 2.00833 6.93927C2.00556 7.13929 2.00278 7.3393 2 7.53932C2 7.77822 2 8.01713 2 8.25604V15.7427C2 15.9816 2 16.2205 2 16.4594C2 16.6595 2.00278 16.8623 2.00833 17.0623C2.01944 17.5012 2.04722 17.9429 2.125 18.3763C2.20278 18.8152 2.33333 19.2263 2.53611 19.6264C2.73611 20.0181 2.99722 20.3792 3.30833 20.6903C3.61944 21.0015 3.98056 21.2626 4.37222 21.4626C4.77222 21.6654 5.18056 21.796 5.61944 21.8738C6.05278 21.9515 6.49444 21.9765 6.93333 21.9904C7.13333 21.996 7.33611 21.9988 7.53611 21.9988C7.775 22.0015 8.01389 21.9988 8.25278 21.9988H15.7389C15.9778 21.9988 16.2167 21.9988 16.4556 21.9988C16.6556 21.9988 16.8583 21.996 17.0583 21.9904C17.4972 21.9793 17.9389 21.9515 18.3722 21.8738C18.8111 21.796 19.2222 21.6654 19.6194 21.4626C20.0111 21.2626 20.3722 21.0015 20.6833 20.6903C20.9944 20.3792 21.2556 20.0208 21.4556 19.6264C21.6583 19.2263 21.7889 18.818 21.8667 18.3763C21.9444 17.9429 21.9694 17.5012 21.9833 17.0623C21.9889 16.8623 21.9917 16.6595 21.9917 16.4594C21.9944 16.2205 21.9917 15.9816 21.9917 15.7427V8.25604C22 8.01713 22 7.77822 22 7.53932ZM16.6417 15.0149C16.6417 15.2677 16.6389 15.4983 16.5861 15.7511C16.5333 15.9983 16.4389 16.2289 16.2944 16.4372C16.15 16.6456 15.9639 16.815 15.7472 16.9428C15.5278 17.0734 15.2972 17.1456 15.0528 17.1956C14.5917 17.2873 14.2778 17.3095 13.9806 17.2512C13.6944 17.1928 13.4528 17.0623 13.2583 16.8845C12.9722 16.6206 12.7917 16.265 12.7528 15.8955C12.7083 15.4594 12.8528 14.9954 13.1778 14.651C13.3417 14.4787 13.55 14.3426 13.8278 14.2343C14.1167 14.1232 14.4361 14.0537 14.9278 13.9565C15.0583 13.9315 15.1861 13.9037 15.3167 13.8787C15.4861 13.8454 15.6333 13.8009 15.75 13.6565C15.8694 13.512 15.8694 13.3342 15.8694 13.162V8.75608C15.8694 8.41994 15.7194 8.32827 15.3972 8.38938C15.1667 8.43383 10.225 9.43113 10.225 9.43113C9.94722 9.4978 9.84722 9.58947 9.84722 9.93672V16.39C9.84722 16.6428 9.83333 16.8734 9.78056 17.1262C9.72778 17.3734 9.63333 17.604 9.48889 17.8123C9.34444 18.0207 9.15833 18.1901 8.94167 18.3179C8.72222 18.4485 8.49167 18.5235 8.24722 18.5735C7.78611 18.6652 7.47222 18.6874 7.175 18.6291C6.88889 18.5707 6.64722 18.4374 6.45278 18.2596C6.16667 17.9957 6 17.6401 5.95833 17.2706C5.91389 16.8345 6.04444 16.3706 6.37222 16.0261C6.53611 15.8538 6.74444 15.7177 7.02222 15.6094C7.31111 15.4983 7.63056 15.4288 8.12222 15.3316C8.25278 15.3066 8.38056 15.2788 8.51111 15.2538C8.68056 15.2205 8.82778 15.176 8.94444 15.0316C9.06111 14.8871 9.075 14.7176 9.075 14.5454C9.075 13.1786 9.075 7.10595 9.075 7.10595C9.075 7.00594 9.08333 6.93927 9.08889 6.90593C9.11389 6.75037 9.175 6.61424 9.28889 6.51979C9.38333 6.44201 9.50556 6.38645 9.65833 6.35311H9.66111L15.6111 5.14746C15.6639 5.13635 16.0917 5.06135 16.1417 5.05579C16.4639 5.02801 16.6444 5.23914 16.6444 5.58083L16.6417 15.0149Z" fill="#1A1A1F"/>
</svg>
