<svg width="24" height="24" viewBox="0 0 24 24" fill="none" xmlns="http://www.w3.org/2000/svg">
<path d="M12 6.865C9.165 6.865 6.865 9.165 6.865 12C6.865 14.835 9.165 17.135 12 17.135C14.835 17.135 17.135 14.835 17.135 12C17.135 9.165 14.835 6.865 12 6.865ZM12 15.335C10.16 15.335 8.665 13.84 8.665 12C8.665 10.16 10.16 8.665 12 8.665C13.84 8.665 15.335 10.16 15.335 12C15.335 13.84 13.84 15.335 12 15.335ZM12 6.865C9.165 6.865 6.865 9.165 6.865 12C6.865 14.835 9.165 17.135 12 17.135C14.835 17.135 17.135 14.835 17.135 12C17.135 9.165 14.835 6.865 12 6.865ZM12 15.335C10.16 15.335 8.665 13.84 8.665 12C8.665 10.16 10.16 8.665 12 8.665C13.84 8.665 15.335 10.16 15.335 12C15.335 13.84 13.84 15.335 12 15.335ZM21.94 7.875C21.89 6.81 21.72 6.085 21.475 5.45C21.22 4.79 20.875 4.235 20.32 3.68C19.765 3.125 19.205 2.78 18.55 2.525C17.915 2.28 17.185 2.11 16.125 2.06C15.055 2.01 14.715 2 12 2C9.285 2 8.945 2.01 7.875 2.06C6.81 2.11 6.085 2.28 5.45 2.525C4.795 2.78 4.235 3.125 3.68 3.68C3.125 4.235 2.78 4.79 2.525 5.45C2.28 6.085 2.11 6.815 2.06 7.875C2.01 8.945 2 9.285 2 12C2 14.715 2.01 15.055 2.06 16.125C2.11 17.19 2.28 17.915 2.525 18.555C2.78 19.21 3.125 19.77 3.68 20.325C4.235 20.88 4.795 21.225 5.45 21.48C6.085 21.725 6.815 21.895 7.88 21.945C8.945 21.99 9.285 22 12 22C14.715 22 15.055 21.99 16.125 21.94C17.19 21.89 17.915 21.72 18.55 21.475C19.21 21.22 19.765 20.875 20.32 20.32C20.875 19.765 21.22 19.205 21.475 18.55C21.72 17.915 21.89 17.185 21.94 16.12C21.99 15.055 22 14.715 22 12C22 9.285 21.99 8.945 21.94 7.875ZM20.14 16.04C20.095 17.015 19.935 17.545 19.795 17.895C19.615 18.36 19.395 18.695 19.045 19.045C18.695 19.395 18.36 19.61 17.895 19.795C17.545 19.93 17.015 20.095 16.04 20.14C14.985 20.19 14.67 20.2 12 20.2C9.33 20.2 9.015 20.19 7.96 20.14C6.985 20.095 6.455 19.935 6.105 19.795C5.64 19.615 5.305 19.395 4.955 19.045C4.605 18.695 4.39 18.36 4.205 17.895C4.07 17.545 3.905 17.015 3.86 16.04C3.81 14.985 3.8 14.67 3.8 12C3.8 9.33 3.81 9.015 3.86 7.96C3.905 6.985 4.065 6.455 4.205 6.1C4.385 5.635 4.605 5.3 4.955 4.95C5.305 4.6 5.64 4.385 6.105 4.2C6.455 4.065 6.985 3.9 7.96 3.855C9.015 3.81 9.33 3.8 12 3.8C14.67 3.8 14.985 3.81 16.04 3.86C17.015 3.905 17.545 4.065 17.895 4.205C18.36 4.385 18.695 4.605 19.045 4.955C19.395 5.305 19.61 5.64 19.795 6.105C19.93 6.455 20.095 6.985 20.14 7.96C20.19 9.015 20.2 9.33 20.2 12C20.2 14.67 20.19 14.985 20.14 16.04ZM12 6.865C9.165 6.865 6.865 9.165 6.865 12C6.865 14.835 9.165 17.135 12 17.135C14.835 17.135 17.135 14.835 17.135 12C17.135 9.165 14.835 6.865 12 6.865ZM12 15.335C10.16 15.335 8.665 13.84 8.665 12C8.665 10.16 10.16 8.665 12 8.665C13.84 8.665 15.335 10.16 15.335 12C15.335 13.84 13.84 15.335 12 15.335ZM18.54 6.66C18.54 7.325 18.005 7.86 17.34 7.86C16.675 7.86 16.14 7.325 16.14 6.66C16.14 5.995 16.675 5.46 17.34 5.46C18.005 5.46 18.54 6 18.54 6.66Z" fill="#1A1A1F"/>
</svg>
