<svg width="24" height="24" viewBox="0 0 24 24" fill="none" xmlns="http://www.w3.org/2000/svg">
<path d="M2.32946 8.64076H6.48587V22H2.32946V8.64076ZM4.40869 2C5.73685 2 6.81532 3.07848 6.81532 4.40732C6.81532 5.73616 5.73685 6.81532 4.40869 6.81532C3.08054 6.81532 2 5.73685 2 4.40732C2 3.07779 3.07504 2 4.40869 2ZM9.09058 22H13.2374V15.3929C13.2374 13.65 13.5668 11.9615 15.7272 11.9615C17.8876 11.9615 17.8849 13.9547 17.8849 15.5037V22H22V14.6735C22 11.0756 21.2592 8.30924 17.0554 8.30924C15.0353 8.30924 13.681 9.4166 13.1273 10.4669H13.0702V8.64076H9.09058V22Z" fill="#1A1A1F"/>
</svg>
