<svg width="24" height="24" viewBox="0 0 24 24" fill="none" xmlns="http://www.w3.org/2000/svg">
<path d="M18.7191 9.2192C17.9056 7.26577 15.981 5.89209 13.733 5.89209C11.8733 5.89209 10.236 6.83328 9.26601 8.2636V17.9989H20.0721C20.8125 17.9989 21.1853 17.554 21.1853 17.554C22.1749 16.6746 22.7999 15.3936 22.7999 13.9663C22.7999 11.5588 21.0298 9.57035 18.7191 9.2192Z" fill="#1A1A1F"/>
<path d="M5.13585 10.3669C5.13585 10.3667 5.13573 10.3663 5.13555 10.366L5.13498 10.3649C5.13432 10.3638 5.13352 10.3624 5.13352 10.3611C5.11018 10.2689 5.05299 10.2 4.98181 10.2C4.9118 10.2 4.85462 10.2689 4.83128 10.3611C4.83128 10.3624 4.83048 10.3638 4.82982 10.3649C4.82935 10.3657 4.82895 10.3664 4.82895 10.3669C4.70759 10.9154 4.62824 11.4953 4.5699 12.2433C4.52089 12.8863 4.49638 13.5106 4.49755 14.0987C4.49638 14.7008 4.52089 15.3251 4.57106 15.9565C4.6294 16.7044 4.70876 17.2855 4.82895 17.8317C4.82895 17.8329 4.82953 17.834 4.83012 17.8352C4.8307 17.8363 4.83128 17.8375 4.83128 17.8387C4.84179 17.8807 4.85929 17.9146 4.88263 17.9414C4.88729 17.9483 4.89196 17.9531 4.8978 17.9577C4.9223 17.9822 4.95031 17.9986 4.98181 17.9986C5.01332 17.9986 5.04249 17.9822 5.067 17.9577C5.07283 17.9531 5.0775 17.9483 5.08217 17.9414C5.10551 17.9146 5.12301 17.8795 5.13352 17.8387C5.13352 17.8363 5.13468 17.834 5.13585 17.8317C5.25604 17.2844 5.33422 16.7032 5.39374 15.9565C5.44275 15.3251 5.46725 14.7008 5.46608 14.101C5.46725 13.5106 5.44391 12.8863 5.39374 12.2433C5.33656 11.4953 5.25604 10.9142 5.13585 10.3669Z" fill="#1A1A1F"/>
<path d="M2.61212 12.5135L2.61177 12.5128C2.61144 12.5121 2.61112 12.5115 2.61112 12.5108C2.59415 12.443 2.55239 12.3947 2.50279 12.3947C2.4532 12.3947 2.41144 12.443 2.39447 12.5108C2.39447 12.5112 2.39437 12.5116 2.39422 12.5119L2.39381 12.5128C2.39349 12.5134 2.39316 12.5141 2.39316 12.5147C2.30702 12.9089 2.24961 13.3265 2.20654 13.8642C2.1713 14.3263 2.15302 14.7739 2.15433 15.1967C2.15433 15.63 2.1713 16.0789 2.20654 16.5318C2.2483 17.0722 2.30572 17.4872 2.39186 17.88C2.39186 17.8826 2.39316 17.8853 2.39316 17.8853C2.401 17.9153 2.41405 17.9414 2.42971 17.9597C2.43168 17.9623 2.43331 17.9642 2.43495 17.9662C2.43657 17.9681 2.4382 17.9701 2.44015 17.9727C2.45841 17.9909 2.478 18 2.50018 18C2.52237 18 2.54325 17.9896 2.56152 17.9727C2.56348 17.9701 2.56511 17.9681 2.56674 17.9662C2.56837 17.9642 2.57001 17.9623 2.57197 17.9597C2.58762 17.9414 2.60068 17.9166 2.60851 17.8853C2.60851 17.8853 2.60981 17.8826 2.60981 17.88C2.69464 17.4872 2.75207 17.0722 2.79514 16.5318C2.83037 16.0776 2.84865 15.63 2.84734 15.1994C2.84865 14.7739 2.83168 14.325 2.79644 13.8642C2.75598 13.3265 2.69855 12.9089 2.61242 12.5147C2.61242 12.5143 2.6123 12.5139 2.61212 12.5135Z" fill="#1A1A1F"/>
<path d="M1.44512 13.8655L1.44393 13.8631C1.4356 13.8286 1.413 13.8 1.38564 13.8C1.35947 13.8 1.33687 13.8274 1.32854 13.8631L1.32735 13.8655C1.28096 14.0772 1.25003 14.2973 1.22743 14.5852C1.2084 14.8337 1.20007 15.0728 1.20007 15.2988C1.20007 15.5308 1.2084 15.7699 1.22743 16.0149C1.25003 16.3028 1.28096 16.524 1.32616 16.7346L1.32735 16.737C1.33092 16.7537 1.33806 16.7667 1.34757 16.7763C1.34817 16.7774 1.34906 16.7786 1.34995 16.7798C1.35084 16.781 1.35174 16.7822 1.35233 16.7834C1.36185 16.7929 1.37255 16.8 1.38445 16.8C1.39634 16.8 1.40824 16.7929 1.41657 16.7834C1.41776 16.7822 1.41865 16.781 1.41954 16.7798C1.42043 16.7786 1.42133 16.7774 1.42252 16.7763C1.43084 16.7667 1.43798 16.7525 1.44155 16.737L1.44274 16.7346C1.48913 16.5229 1.51887 16.3028 1.54147 16.0149C1.5605 15.7711 1.57002 15.532 1.56883 15.3012C1.57002 15.074 1.5605 14.8337 1.54147 14.5852C1.52244 14.2973 1.49151 14.0772 1.44512 13.8655Z" fill="#1A1A1F"/>
<path d="M3.78687 12.7138C3.78723 12.7142 3.78754 12.7146 3.78754 12.715C3.87103 13.0956 3.92669 13.496 3.96799 14.0158C4.0021 14.4611 4.01826 14.893 4.01737 15.3014C4.01826 15.717 4.0012 16.1507 3.96709 16.587C3.92669 17.1059 3.87103 17.5054 3.78843 17.8861C3.78754 17.8861 3.78664 17.8879 3.78664 17.8897C3.77856 17.9193 3.76689 17.9426 3.75073 17.9615C3.74832 17.9651 3.74591 17.9671 3.7435 17.9691L3.74152 17.9708L3.73996 17.9723C3.7229 17.9893 3.70315 18 3.6816 18C3.66006 18 3.64031 17.9902 3.62324 17.9723L3.62195 17.9712C3.61821 17.9683 3.61571 17.9663 3.61248 17.9615C3.59631 17.9426 3.58374 17.9193 3.57656 17.8897C3.57656 17.8879 3.57477 17.8861 3.57477 17.8861C3.49127 17.5054 3.43651 17.1059 3.39611 16.587C3.362 16.1498 3.34494 15.717 3.34584 15.2996C3.34404 14.893 3.3611 14.4611 3.39521 14.0158C3.43562 13.496 3.49127 13.0956 3.57477 12.715C3.57566 12.7141 3.57656 12.7132 3.57656 12.7114C3.59182 12.6476 3.63223 12.6 3.6807 12.6C3.72918 12.6 3.76958 12.6476 3.78574 12.7114C3.78574 12.7124 3.78636 12.7132 3.78687 12.7138Z" fill="#1A1A1F"/>
<path d="M6.58284 10.9509C6.58345 10.9517 6.58406 10.9526 6.58406 10.9534C6.68974 11.4599 6.75965 11.9946 6.81087 12.687C6.85476 13.28 6.87509 13.8559 6.87427 14.4009C6.87427 14.9545 6.85233 15.5303 6.81005 16.1148C6.75803 16.8046 6.68893 17.3402 6.58406 17.8458C6.58406 17.8465 6.58364 17.8472 6.58315 17.8481C6.58245 17.8492 6.58161 17.8506 6.58161 17.8526C6.57186 17.8912 6.55641 17.9229 6.5369 17.9478C6.53446 17.9512 6.53223 17.9533 6.52999 17.9555C6.52776 17.9576 6.52552 17.9598 6.52308 17.9632C6.50195 17.9846 6.47674 18 6.4491 18C6.42146 18 6.39626 17.9846 6.37512 17.9632C6.3729 17.9601 6.37084 17.958 6.36888 17.956C6.36654 17.9537 6.36433 17.9515 6.36212 17.9478C6.3418 17.9229 6.32635 17.8912 6.31741 17.8526C6.31741 17.8516 6.31717 17.8507 6.31684 17.8499C6.31655 17.8492 6.3162 17.8486 6.31588 17.8481C6.31539 17.8472 6.31497 17.8465 6.31497 17.8458C6.2101 17.3402 6.14018 16.8046 6.08897 16.1148C6.04588 15.5303 6.02474 14.9545 6.02556 14.3992C6.02393 13.8559 6.04507 13.28 6.08815 12.6862C6.13937 11.9946 6.20928 11.4599 6.31497 10.9534C6.31519 10.953 6.31571 10.9521 6.31597 10.9517C6.31669 10.9506 6.31741 10.9494 6.31741 10.9483C6.33692 10.8635 6.38813 10.8 6.4491 10.8C6.51089 10.8 6.5621 10.8626 6.58161 10.9483C6.58161 10.9492 6.58223 10.95 6.58284 10.9509Z" fill="#1A1A1F"/>
<path d="M8.20895 8.60195C8.20956 8.60318 8.21012 8.60429 8.21012 8.60521C8.34533 9.27961 8.43454 9.99158 8.49988 10.9168C8.55505 11.707 8.58169 12.4749 8.57985 13.2031C8.57985 13.9415 8.55322 14.7083 8.49896 15.4863C8.43271 16.4065 8.34441 17.1205 8.21104 17.7949C8.21104 17.7957 8.21057 17.7966 8.21001 17.7975C8.20923 17.7989 8.20828 17.8006 8.20828 17.803C8.19632 17.8548 8.177 17.8964 8.15125 17.9299C8.14776 17.9364 8.14464 17.9396 8.14119 17.9431C8.13918 17.9451 8.13706 17.9473 8.1347 17.9503C8.1071 17.9797 8.07583 18 8.03996 18C8.005 18 7.97373 17.9797 7.94613 17.9503C7.94363 17.9471 7.94126 17.9449 7.93898 17.9427C7.9354 17.9394 7.93203 17.9362 7.92866 17.9299C7.90291 17.8964 7.88359 17.8548 7.87163 17.803C7.87163 17.8006 7.87068 17.7989 7.8699 17.7975C7.86935 17.7966 7.86887 17.7957 7.86887 17.7949C7.73458 17.1205 7.64628 16.4065 7.58098 15.4863C7.52579 14.7083 7.49911 13.9405 7.50003 13.199C7.49819 12.4738 7.52487 11.706 7.58005 10.9158C7.64536 9.9926 7.73458 9.27961 7.86887 8.60521C7.86887 8.60369 7.86956 8.60242 7.87025 8.60115C7.87094 8.59988 7.87163 8.59861 7.87163 8.59708C7.89647 8.48333 7.96177 8.40005 8.03903 8.40005C8.11722 8.40005 8.18252 8.48333 8.20736 8.59708C8.20736 8.59876 8.20819 8.60044 8.20895 8.60195Z" fill="#1A1A1F"/>
</svg>
