<svg width="24" height="24" viewBox="0 0 24 24" fill="none" xmlns="http://www.w3.org/2000/svg">
<path fill-rule="evenodd" clip-rule="evenodd" d="M12 2C6.475 2 2 6.475 2 12C2 17.525 6.475 22 12 22C17.525 22 22 17.525 22 12C22 6.475 17.525 2 12 2ZM16.57 16.395C16.415 16.66 16.08 16.765 15.795 16.64C15.74 16.615 15.685 16.58 15.63 16.55C14.57 15.925 13.43 15.535 12.215 15.35C11.47 15.235 10.72 15.195 9.97 15.225C8.995 15.265 8.035 15.4 7.085 15.61C6.99 15.63 6.89 15.65 6.795 15.65C6.5 15.655 6.25 15.445 6.2 15.16C6.145 14.86 6.295 14.58 6.57 14.47C6.63 14.445 6.69 14.43 6.75 14.42C7.525 14.245 8.31 14.115 9.105 14.045C9.55 14.005 9.995 13.995 10.44 13.97C11.755 13.985 13.04 14.16 14.29 14.585C14.98 14.815 15.635 15.12 16.26 15.49C16.315 15.52 16.37 15.555 16.42 15.59C16.665 15.78 16.73 16.125 16.57 16.395ZM17.79 13.675C17.57 14.04 17.11 14.15 16.73 13.935C16.515 13.815 16.3 13.685 16.08 13.575C15.07 13.06 14 12.725 12.89 12.515C12.035 12.355 11.17 12.275 10.255 12.27C9.115 12.275 7.945 12.415 6.8 12.755C6.615 12.81 6.425 12.815 6.245 12.74C5.95 12.62 5.755 12.32 5.765 12.005C5.775 11.675 5.975 11.39 6.295 11.295C6.615 11.195 6.945 11.11 7.275 11.04C8.085 10.86 8.905 10.765 9.735 10.735C11.52 10.665 13.26 10.9 14.96 11.445C15.82 11.72 16.64 12.08 17.42 12.545C17.46 12.57 17.495 12.59 17.535 12.615C17.935 12.86 17.985 13.36 17.79 13.675ZM17.91 10.85C17.48 10.605 17.035 10.385 16.58 10.2C15.665 9.835 14.72 9.585 13.75 9.415C13.075 9.295 12.4 9.22 11.715 9.175C11.005 9.13 10.295 9.125 9.585 9.165C8.77 9.205 7.965 9.295 7.165 9.47C6.87 9.535 6.58 9.615 6.29 9.69C6.11 9.74 5.935 9.745 5.76 9.69C5.37 9.575 5.105 9.23 5.09 8.82C5.08 8.425 5.325 8.055 5.705 7.93C5.985 7.835 6.275 7.765 6.565 7.7C7.28 7.535 8.005 7.435 8.735 7.365C9.51 7.295 10.29 7.27 11.065 7.295C12.98 7.35 14.86 7.63 16.68 8.26C17.42 8.515 18.135 8.835 18.815 9.23C19.055 9.37 19.22 9.57 19.28 9.845C19.295 9.91 19.3 9.98 19.305 10.045C19.305 10.765 18.545 11.21 17.91 10.85Z" fill="#1A1A1F"/>
</svg>
