<svg width="24" height="24" viewBox="0 0 24 24" fill="none" xmlns="http://www.w3.org/2000/svg">
<path d="M21.4062 9.90535C21.2257 9.92282 21.0398 9.92743 20.8584 9.92824C19.8791 9.92838 18.9153 9.68566 18.0538 9.22201C17.1923 8.75836 16.4603 8.08836 15.9238 7.2725V16.316C15.9238 17.6379 15.5302 18.9302 14.7927 20.0294C14.0552 21.1286 13.0069 21.9853 11.7805 22.4912C10.554 22.9971 9.20447 23.1295 7.90249 22.8716C6.60051 22.6137 5.40456 21.9771 4.46588 21.0423C3.5272 20.1075 2.88795 18.9165 2.62897 17.62C2.36999 16.3234 2.50291 14.9794 3.01092 13.7581C3.51893 12.5368 4.37921 11.4929 5.48298 10.7584C6.58675 10.0239 7.88443 9.63194 9.21192 9.63194C9.35203 9.63194 9.48899 9.64448 9.62674 9.6531V12.9469C9.48899 12.9304 9.35361 12.9054 9.21192 12.9054C8.30339 12.9054 7.43207 13.2648 6.78964 13.9045C6.14721 14.5443 5.7863 15.412 5.7863 16.3168C5.7863 17.2215 6.14721 18.0892 6.78964 18.729C7.43207 19.3687 8.30339 19.7281 9.21192 19.7281C11.1042 19.7281 12.7753 18.2435 12.7753 16.3591L12.8084 1H15.9726C16.1172 2.36917 16.7405 3.64417 17.7334 4.60206C18.7264 5.55995 20.0275 6.14401 21.4062 6.24438V9.90535Z" fill="#1A1A1F"/>
</svg>
