<svg width="24" height="24" viewBox="0 0 24 24" fill="none" xmlns="http://www.w3.org/2000/svg">
<path d="M22.5435 6.67C22.2905 5.7185 21.5425 4.965 20.5965 4.712C18.8805 4.25 12 4.25 12 4.25C12 4.25 5.1195 4.25 3.4035 4.712C2.4575 4.965 1.715 5.7185 1.462 6.67C1 8.397 1 11.9995 1 11.9995C1 11.9995 1 15.602 1.462 17.329C1.715 18.2805 2.463 19.034 3.409 19.287C5.1195 19.749 12 19.749 12 19.749C12 19.749 18.8805 19.749 20.5965 19.287C21.5425 19.034 22.285 18.2805 22.5435 17.329C23 15.602 23 11.9995 23 11.9995C23 11.9995 23 8.397 22.5435 6.67ZM9.7505 15.272V8.727L15.498 11.9995L9.7505 15.272Z" fill="#1A1A1F"/>
</svg>
